<svg xmlns="http://www.w3.org/2000/svg" width="256" height="256"><path fill="#009FE2" d="M120 0c2.459-.08 4.915-.14 7.375-.188l2.117-.076c2.031-.029 2.031-.029 5.508.264 2.421 3.632 2.21 5.383 2.125 9.688l-.055 3.574L137 16l2.098.078C152.156 16.835 164.164 20.56 176 26l2.473 1.078c26.068 12.038 45.39 35.503 55.32 62.043 3.522 9.942 6.418 20.256 6.207 30.879l2.992-.07 3.883-.055 3.867-.07C254 120 254 120 256 122a88.1 88.1 0 0 1 .188 7.563l-.002 2.115c-.046 5.182-.046 5.182-1.186 6.322-2.53.073-5.033.092-7.563.063l-2.154-.014c-1.76-.012-3.522-.03-5.283-.049l-.188 3.813c-2.955 28.627-17.691 54.576-39.375 73.21-18.694 15.16-38.935 22.4-62.437 25.977l-.148 2.52-.227 3.292c-.07 1.08-.14 2.158-.21 3.27C137 253 137 253 135 256a61.595 61.595 0 0 1-7.625.188l-2.14-.042c-1.746-.035-3.49-.089-5.235-.146-1.913-3.266-2.357-5.994-2.625-9.75l-.227-2.984L117 241l-3.086-.445C91.504 237.1 71.007 229.342 54 214l-2.504-2.074C30.265 193.95 18.986 168.09 15 141v-3l-3.027.035-3.91.028-3.903.035C1 138 1 138 0 137a148.577 148.577 0 0 1-.188-7.438l-.037-2.103c-.005-1.821.103-3.642.225-5.459 2-2 2-2 5.04-2.195l3.585.07 3.602.055L15 120l.078-2.063C16.896 86.864 33.421 60.6 56 40c16.269-13.823 40.473-24.343 62-24l-.07-2.484-.055-3.266-.07-3.234c.19-2.94.668-4.54 2.195-7.016ZM61 60l-1.93 1.773C42.988 76.998 35.598 98.563 33 120h28l2.125-7.75c5.436-18.743 15.325-32.904 32.477-42.742 5.295-2.77 10.697-4.76 16.398-6.508l6-2V33c-21.794 0-41.77 12.407-57 27Zm76-27v28l7.75 2.125C162.189 68.182 176.474 77.109 186 93c4.72 8.695 7.502 17.49 10 27h28c-2.37-20.681-8.75-39.357-23-55l-2.645-2.926C184.043 46.757 164.944 35.932 144 33h-7Zm0 39v48h49c-4.288-17.152-10.498-29.904-25.375-39.938C153.293 75.766 145.573 72 137 72ZM87.812 87.563C79.813 96.023 73 108.233 73 120h45V72c-10.557 0-22.676 8.724-30.188 15.563ZM34 138c1.486 19.48 9.257 36.31 22 51l2.313 3.063C72.416 207.478 91.73 216.886 112 221h6v-26l-6.688-1.563C94.1 189.03 80.505 178.95 71 164c-4.036-7.305-6.697-14.585-8.457-22.734-.323-2.22-.323-2.22-1.543-3.266-2-.088-4.002-.107-6.004-.098l-3.682.01-3.877.025-3.888.014c-3.183.012-6.366.028-9.549.049Zm39 0c3.508 15.785 10.657 28.012 24.129 37.242 6.958 4.26 12.74 6.597 20.871 7.758v-45H73Zm64 0v46c6.954-1.39 12.016-2.488 18.063-5.625l2.085-1.07C170.225 170.35 179.168 158.998 184 145l1-7h-48Zm59 0c-1.469 4.4-1.469 4.4-2.86 8.824-5.592 17.981-15.672 31.72-32.308 40.93-7.735 3.76-15.545 6.07-23.832 8.246v26c27.4-4.11 51.06-15.134 68.226-37.579C215.562 170.261 221.409 155.503 223 138h-27Z"/><path fill="#E01C22" d="M15 138h19l.813 4.031C37.367 154.041 40.795 164.401 47 175l1.824 3.148c13.38 21.948 35.141 34.789 59.633 40.957 3.534.893 7.039 1.894 10.543 2.895v18c-6.768 3.384-21.09-2.386-28-4.625C77.101 230.64 64.92 223.851 54 214l-2.504-2.074C30.265 193.95 18.986 168.09 15 141v-3ZM119 16v17l-3.559.629C88.567 38.656 65.905 51.2 49.871 74.03 40.507 88.673 36.44 103.171 33 120H15c1.601-32.027 17.637-58.685 41-80 16.892-14.353 40.841-24 63-24Z"/><path fill="#DF1D23" d="M223 138h17c-1.424 28.965-16.045 55.441-37.063 74.875C183.86 229.27 161.885 238.257 137 241c-1-1-1-1-1.114-2.766l.016-2.27.01-2.45.025-2.577.014-2.587c.012-2.117.03-4.233.049-6.35l1.766-.348C166.46 215.88 191.27 203.996 208 179c8.01-12.632 12.77-26.207 15-41Z"/><path fill="#DF1C23" d="M136 16c14.242.48 27.092 4.068 40 10l2.473 1.078c26.068 12.038 45.39 35.503 55.32 62.043C237.343 99.144 240 109.313 240 120h-16l-1.031-4.906C220.103 102.018 216.805 90.543 210 79l-1.574-2.922C197.598 57.205 177.623 43.188 157 37c-5.334-1.319-10.713-2.336-16.125-3.273C137 33 137 33 136 32a210.174 210.174 0 0 1-.063-8.063l.014-2.298c.012-1.88.03-3.76.049-5.639Z"/><path fill="#E01C22" d="M61 138h12l1.066 3.148C77.861 152.002 82.281 161.153 91 169l1.406 1.418C99.678 177.351 109.664 180.705 119 184v11c-14.893-.657-29.7-8.17-40-19-9.855-11.506-15.076-23.216-18-38Z"/><path fill="#DE1C23" d="M185 138h11c-4.012 19.413-12.287 35.262-28.828 46.996C158.05 190.76 147.009 196 136 196v-12l3.113-.883c16.743-4.89 29.705-11.731 38.887-27.117 3.021-5.81 5.445-11.638 7-18Z"/><path fill="#DE1C22" d="M119 61v11l-3.113 1.066C97.31 79.61 85.875 88.31 77 106c-1.931 4.64-3.013 9.066-4 14H61c2-13.633 6.319-24.261 15-35l1.46-1.957C86.292 71.737 104.21 61 119 61Z"/><path fill="#DD1C23" d="M136 61c13.632.487 25.665 6.422 36 15l1.945 1.457C187.242 87.802 193.258 103.955 196 120h-10l-1.25-3.875c-.58-1.71-1.163-3.418-1.75-5.125l-.809-2.438c-5.447-15.107-16.203-25.05-30.293-31.97-4.902-2.295-9.532-3.745-14.898-4.592-1-1-1-1-1.098-3.285l.036-2.778.027-2.785L136 61Z"/></svg>